<svg xmlns="http://www.w3.org/2000/svg" viewBox="0 0 100 100" preserveAspectRatio="xMidYMid" width="200" height="200" xmlns:xlink="http://www.w3.org/1999/xlink" style="shape-rendering:auto;display:block;background-position-x:0%;background-position-y:0%;background-size:auto;background-origin:padding-box;background-clip:border-box;background:scroll rgba(0, 0, 0, 0) none  repeat;width:200px;height:200px;;animation:none"><g><g transform="matrix(1,0,0,1,0,0)" style="transform:matrix(1, 0, 0, 1, 0, 0);;animation:none"><rect fill="#ff5a7b" height="12" width="5" ry="3.6" rx="2.5" y="18" x="47.5" opacity="0.0625" style="fill:rgb(255, 90, 123);opacity:0.0625;;animation:none"></rect></g>
<g transform="matrix(0.9238795325112867,0.3826834323650898,-0.3826834323650898,0.9238795325112867,22.94019499269015,-15.32814824381883)" style="transform:matrix(0.92388, 0.382683, -0.382683, 0.92388, 22.9402, -15.3281);;animation:none"><rect fill="#ff7e5e" height="12" width="5" ry="3.6" rx="2.5" y="18" x="47.5" opacity="0.125" style="fill:rgb(255, 126, 94);opacity:0.125;;animation:none"></rect></g>
<g transform="matrix(0.7071067811865476,0.7071067811865476,-0.7071067811865476,0.7071067811865476,50,-20.710678118654755)" style="transform:matrix(0.707107, 0.707107, -0.707107, 0.707107, 50, -20.7107);;animation:none"><rect fill="#ffa84f" height="12" width="5" ry="3.6" rx="2.5" y="18" x="47.5" opacity="0.1875" style="fill:rgb(255, 168, 79);opacity:0.1875;;animation:none"></rect></g>
<g transform="matrix(0.38268343236508984,0.9238795325112867,-0.9238795325112867,0.38268343236508984,77.05980500730985,-15.32814824381883)" style="transform:matrix(0.382683, 0.92388, -0.92388, 0.382683, 77.0598, -15.3281);;animation:none"><rect fill="#b1cc73" height="12" width="5" ry="3.6" rx="2.5" y="18" x="47.5" opacity="0.25" style="fill:rgb(177, 204, 115);opacity:0.25;;animation:none"></rect></g>
<g transform="matrix(6.123233995736766e-17,1,-1,6.123233995736766e-17,100,0)" style="transform:matrix(0, 1, -1, 0, 100, 0);;animation:none"><rect fill="#65c5ba" height="12" width="5" ry="3.6" rx="2.5" y="18" x="47.5" opacity="0.3125" style="fill:rgb(101, 197, 186);opacity:0.3125;;animation:none"></rect></g>
<g transform="matrix(-0.3826834323650897,0.9238795325112867,-0.9238795325112867,-0.3826834323650897,115.32814824381883,22.94019499269015)" style="transform:matrix(-0.382683, 0.92388, -0.92388, -0.382683, 115.328, 22.9402);;animation:none"><rect fill="#6492ac" height="12" width="5" ry="3.6" rx="2.5" y="18" x="47.5" opacity="0.375" style="fill:rgb(100, 146, 172);opacity:0.375;;animation:none"></rect></g>
<g transform="matrix(-0.7071067811865475,0.7071067811865476,-0.7071067811865476,-0.7071067811865475,120.71067811865476,49.99999999999999)" style="transform:matrix(-0.707107, 0.707107, -0.707107, -0.707107, 120.711, 50);;animation:none"><rect fill="#9563b5" height="12" width="5" ry="3.6" rx="2.5" y="18" x="47.5" opacity="0.4375" style="fill:rgb(149, 99, 181);opacity:0.4375;;animation:none"></rect></g>
<g transform="matrix(-0.9238795325112867,0.3826834323650899,-0.3826834323650899,-0.9238795325112867,115.32814824381883,77.05980500730985)" style="transform:matrix(-0.92388, 0.382683, -0.382683, -0.92388, 115.328, 77.0598);;animation:none"><rect fill="#e650c2" height="12" width="5" ry="3.6" rx="2.5" y="18" x="47.5" opacity="0.5" style="fill:rgb(230, 80, 194);opacity:0.5;;animation:none"></rect></g>
<g transform="matrix(-1,1.2246467991473532e-16,-1.2246467991473532e-16,-1,100,100)" style="transform:matrix(-1, 0, 0, -1, 100, 100);;animation:none"><rect fill="#ff5a7b" height="12" width="5" ry="3.6" rx="2.5" y="18" x="47.5" opacity="0.5625" style="fill:rgb(255, 90, 123);opacity:0.5625;;animation:none"></rect></g>
<g transform="matrix(-0.9238795325112868,-0.38268343236508967,0.38268343236508967,-0.9238795325112868,77.05980500730985,115.32814824381882)" style="transform:matrix(-0.92388, -0.382683, 0.382683, -0.92388, 77.0598, 115.328);;animation:none"><rect fill="#ff7e5e" height="12" width="5" ry="3.6" rx="2.5" y="18" x="47.5" opacity="0.625" style="fill:rgb(255, 126, 94);opacity:0.625;;animation:none"></rect></g>
<g transform="matrix(-0.7071067811865477,-0.7071067811865475,0.7071067811865475,-0.7071067811865477,50.000000000000014,120.71067811865476)" style="transform:matrix(-0.707107, -0.707107, 0.707107, -0.707107, 50, 120.711);;animation:none"><rect fill="#ffa84f" height="12" width="5" ry="3.6" rx="2.5" y="18" x="47.5" opacity="0.6875" style="fill:rgb(255, 168, 79);opacity:0.6875;;animation:none"></rect></g>
<g transform="matrix(-0.3826834323650895,-0.9238795325112868,0.9238795325112868,-0.3826834323650895,22.940194992690135,115.32814824381882)" style="transform:matrix(-0.382683, -0.92388, 0.92388, -0.382683, 22.9402, 115.328);;animation:none"><rect fill="#b1cc73" height="12" width="5" ry="3.6" rx="2.5" y="18" x="47.5" opacity="0.75" style="fill:rgb(177, 204, 115);opacity:0.75;;animation:none"></rect></g>
<g transform="matrix(-1.8369701987210297e-16,-1,1,-1.8369701987210297e-16,7.105427357601002e-15,100)" style="transform:matrix(0, -1, 1, 0, 0, 100);;animation:none"><rect fill="#65c5ba" height="12" width="5" ry="3.6" rx="2.5" y="18" x="47.5" opacity="0.8125" style="fill:rgb(101, 197, 186);opacity:0.8125;;animation:none"></rect></g>
<g transform="matrix(0.38268343236509,-0.9238795325112866,0.9238795325112866,0.38268343236509,-15.32814824381883,77.05980500730983)" style="transform:matrix(0.382683, -0.92388, 0.92388, 0.382683, -15.3281, 77.0598);;animation:none"><rect fill="#6492ac" height="12" width="5" ry="3.6" rx="2.5" y="18" x="47.5" opacity="0.875" style="fill:rgb(100, 146, 172);opacity:0.875;;animation:none"></rect></g>
<g transform="matrix(0.7071067811865474,-0.7071067811865477,0.7071067811865477,0.7071067811865474,-20.710678118654755,50.000000000000014)" style="transform:matrix(0.707107, -0.707107, 0.707107, 0.707107, -20.7107, 50);;animation:none"><rect fill="#9563b5" height="12" width="5" ry="3.6" rx="2.5" y="18" x="47.5" opacity="0.9375" style="fill:rgb(149, 99, 181);opacity:0.9375;;animation:none"></rect></g>
<g transform="matrix(0.9238795325112868,-0.38268343236508956,0.38268343236508956,0.9238795325112868,-15.328148243818816,22.940194992690138)" style="transform:matrix(0.92388, -0.382683, 0.382683, 0.92388, -15.3281, 22.9402);;animation:none"><rect fill="#e650c2" height="12" width="5" ry="3.6" rx="2.5" y="18" x="47.5" opacity="1" style="fill:rgb(230, 80, 194);;animation:none"></rect></g>
<g></g></g><!-- [ldio] generated by https://loading.io --></svg>