<svg xmlns="http://www.w3.org/2000/svg" xmlns:xlink="http://www.w3.org/1999/xlink" width="500" zoomAndPan="magnify" viewBox="0 0 375 374.999991" height="500" preserveAspectRatio="xMidYMid meet" version="1.0"><defs><g/><clipPath id="228c7967d5"><path d="M 28 154 L 94.65625 154 L 94.65625 221.230469 L 28 221.230469 Z M 28 154 " clip-rule="nonzero"/></clipPath><clipPath id="0d5e3d69ad"><path d="M 21.15625 149.980469 L 51 149.980469 L 51 180 L 21.15625 180 Z M 21.15625 149.980469 " clip-rule="nonzero"/></clipPath><clipPath id="a56759e70f"><path d="M 61 154 L 94.65625 154 L 94.65625 221.230469 L 61 221.230469 Z M 61 154 " clip-rule="nonzero"/></clipPath><clipPath id="abb6c063b4"><path d="M 19.121094 147.480469 L 53.050781 147.480469 L 53.050781 181.980469 L 19.121094 181.980469 Z M 19.121094 147.480469 " clip-rule="nonzero"/></clipPath><clipPath id="18c30c5f37"><path d="M 44 170 L 79.648438 170 L 79.648438 206.0625 L 44 206.0625 Z M 44 170 " clip-rule="nonzero"/></clipPath><clipPath id="6d3eeda534"><path d="M 39.476562 168.5625 L 58 168.5625 L 58 188 L 39.476562 188 Z M 39.476562 168.5625 " clip-rule="nonzero"/></clipPath><clipPath id="eb6c792408"><path d="M 331 185 L 344 185 L 344 220.875 L 331 220.875 Z M 331 185 " clip-rule="nonzero"/></clipPath><clipPath id="67ecfef878"><path d="M 331 149.625 L 344 149.625 L 344 186 L 331 186 Z M 331 149.625 " clip-rule="nonzero"/></clipPath><clipPath id="15303b1d74"><path d="M 311.304688 149.625 L 337 149.625 L 337 186 L 311.304688 186 Z M 311.304688 149.625 " clip-rule="nonzero"/></clipPath><clipPath id="68eb5bfe9e"><path d="M 311.304688 185 L 337 185 L 337 220.875 L 311.304688 220.875 Z M 311.304688 185 " clip-rule="nonzero"/></clipPath><clipPath id="0e532b8778"><path d="M 336 186 L 351.054688 186 L 351.054688 214 L 336 214 Z M 336 186 " clip-rule="nonzero"/></clipPath><clipPath id="7c524fda26"><path d="M 336 157 L 351.054688 157 L 351.054688 185 L 336 185 Z M 336 157 " clip-rule="nonzero"/></clipPath></defs><g clip-path="url(#228c7967d5)"><path fill="#5aff7a" d="M 61.410156 154.457031 L 69.808594 154.457031 C 83.582031 154.457031 94.785156 165.660156 94.785156 179.433594 L 94.785156 221.210938 L 53.007812 221.210938 C 39.238281 221.210938 28.03125 210.003906 28.03125 196.230469 L 28.03125 187.832031 L 41.957031 187.832031 L 41.957031 196.230469 C 41.957031 202.328125 46.910156 207.285156 53.007812 207.285156 L 80.859375 207.285156 L 80.859375 179.433594 C 80.859375 173.339844 75.902344 168.378906 69.808594 168.378906 L 61.410156 168.378906 Z M 61.410156 154.457031 " fill-opacity="1" fill-rule="nonzero"/></g><g clip-path="url(#0d5e3d69ad)"><path fill="#14edb9" d="M 31.046875 159.539062 L 21.15625 159.539062 L 21.15625 169.277344 L 31.046875 169.277344 L 31.046875 179.167969 L 40.785156 179.167969 L 40.785156 169.277344 L 50.675781 169.277344 L 50.675781 159.539062 L 40.785156 159.539062 L 40.785156 149.648438 L 31.046875 149.648438 Z M 31.046875 159.539062 " fill-opacity="1" fill-rule="nonzero"/></g><g clip-path="url(#a56759e70f)"><path fill="#d1ff5d" d="M 61.410156 154.457031 L 69.808594 154.457031 C 83.582031 154.457031 94.785156 165.660156 94.785156 179.433594 L 94.785156 221.210938 L 94.09375 221.210938 L 80.574219 207.285156 L 80.859375 207.285156 L 80.859375 179.433594 C 80.859375 173.339844 75.902344 168.378906 69.808594 168.378906 L 61.410156 168.378906 Z M 61.410156 154.457031 " fill-opacity="1" fill-rule="nonzero"/></g><g clip-path="url(#abb6c063b4)"><path fill="#0d2329" d="M 19.121094 181.980469 L 19.121094 147.519531 L 53.050781 147.519531 L 53.050781 181.980469 Z M 19.121094 181.980469 " fill-opacity="1" fill-rule="nonzero"/></g><g clip-path="url(#18c30c5f37)"><path fill="#14edb9" d="M 44.882812 183.835938 C 44.636719 184.953125 44.503906 186.113281 44.503906 187.300781 C 44.503906 196.042969 51.589844 203.132812 60.332031 203.132812 C 69.074219 203.132812 76.160156 196.042969 76.160156 187.300781 C 76.160156 178.558594 69.074219 171.472656 60.332031 171.472656 C 57.304688 171.472656 54.476562 172.324219 52.074219 173.796875 C 54.933594 171.851562 58.386719 170.714844 62.105469 170.714844 C 71.964844 170.714844 79.960938 178.707031 79.960938 188.570312 C 79.960938 198.429688 71.964844 206.425781 62.105469 206.425781 C 52.242188 206.425781 44.25 198.429688 44.25 188.570312 C 44.25 186.929688 44.472656 185.34375 44.882812 183.835938 " fill-opacity="1" fill-rule="nonzero"/></g><path fill="#5aff7a" d="M 60.792969 187.90625 C 61.625 189.910156 61.019531 191.757812 60.433594 192.875 C 60.476562 191.582031 59.265625 189.078125 56.628906 186.988281 C 56.628906 186.988281 59.09375 189.527344 59.726562 191.96875 C 60.179688 193.707031 61.613281 195.03125 63.394531 195.261719 C 64.175781 195.363281 64.988281 195.335938 65.800781 195.164062 C 69.660156 194.347656 72.15625 190.542969 71.371094 186.679688 C 70.597656 182.875 66.953125 180.382812 63.148438 181.007812 C 63.234375 180.988281 63.324219 180.96875 63.414062 180.949219 C 67.621094 180.105469 71.714844 182.835938 72.558594 187.042969 C 73.402344 191.25 70.671875 195.34375 66.464844 196.1875 C 64.296875 196.621094 62.160156 196.109375 60.480469 194.933594 C 59.679688 194.371094 58.828125 193.894531 57.945312 193.472656 C 56.566406 192.816406 54.855469 191.292969 54.628906 187.777344 C 54.410156 184.320312 52.457031 183.167969 52.457031 183.167969 C 52.457031 183.167969 58.855469 183.253906 60.792969 187.90625 " fill-opacity="1" fill-rule="nonzero"/><path fill="#5aff7a" d="M 65.945312 188.371094 C 65.847656 192.6875 62.472656 192.964844 62.472656 192.964844 C 61.691406 190.996094 64.488281 187.863281 64.488281 187.863281 C 62.65625 189.441406 61.863281 191.273438 61.929688 192.199219 C 61.480469 191.417969 60.988281 190.109375 61.527344 188.644531 C 62.777344 185.253906 67.367188 185 67.367188 185 C 67.367188 185 66 185.886719 65.945312 188.371094 " fill-opacity="1" fill-rule="nonzero"/><g clip-path="url(#6d3eeda534)"><path fill="#14edb9" d="M 45.082031 174.078125 L 45.082031 168.964844 C 45.082031 168.742188 45.261719 168.5625 45.480469 168.5625 L 51.460938 168.5625 C 51.679688 168.5625 51.859375 168.742188 51.859375 168.964844 L 51.859375 174.078125 C 51.859375 174.300781 52.039062 174.480469 52.261719 174.480469 L 57.378906 174.480469 C 57.597656 174.480469 57.777344 174.660156 57.777344 174.878906 L 57.777344 180.859375 C 57.777344 181.078125 57.597656 181.257812 57.378906 181.257812 L 52.261719 181.257812 C 52.039062 181.257812 51.859375 181.4375 51.859375 181.660156 L 51.859375 186.773438 C 51.859375 186.996094 51.679688 187.175781 51.460938 187.175781 L 45.480469 187.175781 C 45.261719 187.175781 45.082031 186.996094 45.082031 186.773438 L 45.082031 181.660156 C 45.082031 181.4375 44.902344 181.257812 44.679688 181.257812 L 39.566406 181.257812 C 39.34375 181.257812 39.164062 181.078125 39.164062 180.859375 L 39.164062 174.878906 C 39.164062 174.660156 39.34375 174.480469 39.566406 174.480469 L 44.679688 174.480469 C 44.902344 174.480469 45.082031 174.300781 45.082031 174.078125 " fill-opacity="1" fill-rule="nonzero"/></g><path fill="#14edb9" d="M 53.523438 196.105469 L 53.523438 194.644531 C 53.523438 194.582031 53.578125 194.53125 53.640625 194.53125 L 55.34375 194.53125 C 55.40625 194.53125 55.457031 194.582031 55.457031 194.644531 L 55.457031 196.105469 C 55.457031 196.167969 55.507812 196.21875 55.570312 196.21875 L 57.03125 196.21875 C 57.09375 196.21875 57.144531 196.269531 57.144531 196.332031 L 57.144531 198.035156 C 57.144531 198.097656 57.09375 198.152344 57.03125 198.152344 L 55.570312 198.152344 C 55.507812 198.152344 55.457031 198.203125 55.457031 198.265625 L 55.457031 199.722656 C 55.457031 199.785156 55.40625 199.835938 55.34375 199.835938 L 53.640625 199.835938 C 53.578125 199.835938 53.523438 199.785156 53.523438 199.722656 L 53.523438 198.265625 C 53.523438 198.203125 53.472656 198.152344 53.410156 198.152344 L 51.953125 198.152344 C 51.890625 198.152344 51.839844 198.097656 51.839844 198.035156 L 51.839844 196.332031 C 51.839844 196.269531 51.890625 196.21875 51.953125 196.21875 L 53.410156 196.21875 C 53.472656 196.21875 53.523438 196.167969 53.523438 196.105469 " fill-opacity="1" fill-rule="nonzero"/><path fill="#14edb9" d="M 64.269531 175.421875 L 64.269531 173.964844 C 64.269531 173.902344 64.320312 173.851562 64.382812 173.851562 L 66.089844 173.851562 C 66.152344 173.851562 66.203125 173.902344 66.203125 173.964844 L 66.203125 175.421875 C 66.203125 175.484375 66.253906 175.535156 66.316406 175.535156 L 67.773438 175.535156 C 67.839844 175.535156 67.890625 175.589844 67.890625 175.652344 L 67.890625 177.355469 C 67.890625 177.417969 67.839844 177.46875 67.773438 177.46875 L 66.316406 177.46875 C 66.253906 177.46875 66.203125 177.519531 66.203125 177.582031 L 66.203125 179.042969 C 66.203125 179.105469 66.152344 179.15625 66.089844 179.15625 L 64.382812 179.15625 C 64.320312 179.15625 64.269531 179.105469 64.269531 179.042969 L 64.269531 177.582031 C 64.269531 177.519531 64.21875 177.46875 64.15625 177.46875 L 62.699219 177.46875 C 62.632812 177.46875 62.582031 177.417969 62.582031 177.355469 L 62.582031 175.652344 C 62.582031 175.589844 62.632812 175.535156 62.699219 175.535156 L 64.15625 175.535156 C 64.21875 175.535156 64.269531 175.484375 64.269531 175.421875 " fill-opacity="1" fill-rule="nonzero"/><g fill="#ffffff" fill-opacity="1"><g transform="translate(98.257527, 201.801443)"><g><path d="M 3.96875 0 L 3.96875 -40.8125 L 12.828125 -40.8125 L 25.828125 -14.921875 L 38.65625 -40.8125 L 47.53125 -40.8125 L 47.53125 0 L 40.0625 0 L 40.0625 -28.171875 L 28.6875 -5.828125 L 22.796875 -5.828125 L 11.421875 -28.171875 L 11.421875 0 Z M 3.96875 0 "/></g></g></g><g fill="#ffffff" fill-opacity="1"><g transform="translate(144.210468, 201.801443)"><g><path d="M 17.84375 0.703125 C 14.925781 0.703125 12.335938 0.0820312 10.078125 -1.15625 C 7.828125 -2.40625 6.0625 -4.15625 4.78125 -6.40625 C 3.5 -8.664062 2.859375 -11.273438 2.859375 -14.234375 C 2.859375 -17.222656 3.488281 -19.882812 4.75 -22.21875 C 6.007812 -24.550781 7.757812 -26.367188 10 -27.671875 C 12.238281 -28.972656 14.875 -29.625 17.90625 -29.625 C 20.738281 -29.625 23.242188 -29 25.421875 -27.75 C 27.597656 -26.507812 29.296875 -24.8125 30.515625 -22.65625 C 31.742188 -20.5 32.359375 -18.097656 32.359375 -15.453125 C 32.359375 -15.023438 32.347656 -14.578125 32.328125 -14.109375 C 32.316406 -13.640625 32.289062 -13.15625 32.25 -12.65625 L 10.265625 -12.65625 C 10.421875 -10.394531 11.207031 -8.625 12.625 -7.34375 C 14.039062 -6.0625 15.757812 -5.421875 17.78125 -5.421875 C 19.300781 -5.421875 20.578125 -5.757812 21.609375 -6.4375 C 22.640625 -7.125 23.40625 -8.007812 23.90625 -9.09375 L 31.484375 -9.09375 C 30.941406 -7.269531 30.035156 -5.609375 28.765625 -4.109375 C 27.503906 -2.609375 25.953125 -1.429688 24.109375 -0.578125 C 22.265625 0.273438 20.175781 0.703125 17.84375 0.703125 Z M 17.90625 -23.5625 C 16.070312 -23.5625 14.457031 -23.046875 13.0625 -22.015625 C 11.664062 -20.984375 10.769531 -19.414062 10.375 -17.3125 L 24.78125 -17.3125 C 24.664062 -19.21875 23.96875 -20.734375 22.6875 -21.859375 C 21.40625 -22.992188 19.8125 -23.5625 17.90625 -23.5625 Z M 17.90625 -23.5625 "/></g></g></g><g fill="#ffffff" fill-opacity="1"><g transform="translate(173.543178, 201.801443)"><g><path d="M 17.078125 0.703125 C 14.359375 0.703125 11.929688 0.0390625 9.796875 -1.28125 C 7.660156 -2.601562 5.96875 -4.410156 4.71875 -6.703125 C 3.476562 -8.992188 2.859375 -11.597656 2.859375 -14.515625 C 2.859375 -17.429688 3.476562 -20.023438 4.71875 -22.296875 C 5.96875 -24.578125 7.660156 -26.367188 9.796875 -27.671875 C 11.929688 -28.972656 14.359375 -29.625 17.078125 -29.625 C 19.253906 -29.625 21.160156 -29.210938 22.796875 -28.390625 C 24.429688 -27.578125 25.753906 -26.429688 26.765625 -24.953125 L 26.765625 -41.984375 L 34.234375 -41.984375 L 34.234375 0 L 27.578125 0 L 26.765625 -4.140625 C 25.828125 -2.859375 24.59375 -1.726562 23.0625 -0.75 C 21.53125 0.21875 19.535156 0.703125 17.078125 0.703125 Z M 18.65625 -5.828125 C 21.070312 -5.828125 23.046875 -6.632812 24.578125 -8.25 C 26.109375 -9.863281 26.875 -11.9375 26.875 -14.46875 C 26.875 -16.988281 26.109375 -19.054688 24.578125 -20.671875 C 23.046875 -22.285156 21.070312 -23.09375 18.65625 -23.09375 C 16.289062 -23.09375 14.328125 -22.296875 12.765625 -20.703125 C 11.210938 -19.109375 10.4375 -17.046875 10.4375 -14.515625 C 10.4375 -11.992188 11.210938 -9.914062 12.765625 -8.28125 C 14.328125 -6.644531 16.289062 -5.828125 18.65625 -5.828125 Z M 18.65625 -5.828125 "/></g></g></g><g fill="#ffffff" fill-opacity="1"><g transform="translate(206.024987, 201.801443)"><g><path d="M 7.8125 -33.40625 C 6.445312 -33.40625 5.328125 -33.8125 4.453125 -34.625 C 3.585938 -35.445312 3.15625 -36.484375 3.15625 -37.734375 C 3.15625 -38.972656 3.585938 -39.988281 4.453125 -40.78125 C 5.328125 -41.582031 6.445312 -41.984375 7.8125 -41.984375 C 9.175781 -41.984375 10.296875 -41.582031 11.171875 -40.78125 C 12.046875 -39.988281 12.484375 -38.972656 12.484375 -37.734375 C 12.484375 -36.484375 12.046875 -35.445312 11.171875 -34.625 C 10.296875 -33.8125 9.175781 -33.40625 7.8125 -33.40625 Z M 4.078125 0 L 4.078125 -28.921875 L 11.546875 -28.921875 L 11.546875 0 Z M 4.078125 0 "/></g></g></g><g fill="#ffffff" fill-opacity="1"><g transform="translate(216.054896, 201.801443)"><g><path d="M 3.96875 0 L 3.96875 -40.8125 L 20.34375 -40.8125 C 24.582031 -40.8125 27.816406 -39.828125 30.046875 -37.859375 C 32.285156 -35.898438 33.40625 -33.390625 33.40625 -30.328125 C 33.40625 -27.753906 32.710938 -25.695312 31.328125 -24.15625 C 29.953125 -22.625 28.273438 -21.585938 26.296875 -21.046875 C 28.628906 -20.578125 30.550781 -19.421875 32.0625 -17.578125 C 33.582031 -15.734375 34.34375 -13.585938 34.34375 -11.140625 C 34.34375 -7.910156 33.175781 -5.242188 30.84375 -3.140625 C 28.507812 -1.046875 25.207031 0 20.9375 0 Z M 11.421875 -23.671875 L 19.25 -23.671875 C 21.34375 -23.671875 22.953125 -24.15625 24.078125 -25.125 C 25.210938 -26.101562 25.78125 -27.484375 25.78125 -29.265625 C 25.78125 -30.984375 25.222656 -32.335938 24.109375 -33.328125 C 23.003906 -34.316406 21.34375 -34.8125 19.125 -34.8125 L 11.421875 -34.8125 Z M 11.421875 -6.0625 L 19.765625 -6.0625 C 21.984375 -6.0625 23.703125 -6.578125 24.921875 -7.609375 C 26.148438 -8.640625 26.765625 -10.085938 26.765625 -11.953125 C 26.765625 -13.859375 26.125 -15.351562 24.84375 -16.4375 C 23.5625 -17.53125 21.832031 -18.078125 19.65625 -18.078125 L 11.421875 -18.078125 Z M 11.421875 -6.0625 "/></g></g></g><g fill="#ffffff" fill-opacity="1"><g transform="translate(247.312056, 201.801443)"><g><path d="M 17.671875 0.703125 C 14.867188 0.703125 12.347656 0.0625 10.109375 -1.21875 C 7.878906 -2.507812 6.113281 -4.289062 4.8125 -6.5625 C 3.507812 -8.832031 2.859375 -11.46875 2.859375 -14.46875 C 2.859375 -17.457031 3.519531 -20.085938 4.84375 -22.359375 C 6.164062 -24.640625 7.941406 -26.421875 10.171875 -27.703125 C 12.410156 -28.984375 14.929688 -29.625 17.734375 -29.625 C 20.484375 -29.625 22.976562 -28.984375 25.21875 -27.703125 C 27.457031 -26.421875 29.226562 -24.640625 30.53125 -22.359375 C 31.832031 -20.085938 32.484375 -17.457031 32.484375 -14.46875 C 32.484375 -11.46875 31.832031 -8.832031 30.53125 -6.5625 C 29.226562 -4.289062 27.445312 -2.507812 25.1875 -1.21875 C 22.9375 0.0625 20.429688 0.703125 17.671875 0.703125 Z M 17.671875 -5.765625 C 19.609375 -5.765625 21.296875 -6.492188 22.734375 -7.953125 C 24.179688 -9.410156 24.90625 -11.582031 24.90625 -14.46875 C 24.90625 -17.34375 24.179688 -19.507812 22.734375 -20.96875 C 21.296875 -22.425781 19.628906 -23.15625 17.734375 -23.15625 C 15.742188 -23.15625 14.039062 -22.425781 12.625 -20.96875 C 11.207031 -19.507812 10.5 -17.34375 10.5 -14.46875 C 10.5 -11.582031 11.207031 -9.410156 12.625 -7.953125 C 14.039062 -6.492188 15.722656 -5.765625 17.671875 -5.765625 Z M 17.671875 -5.765625 "/></g></g></g><g fill="#ffffff" fill-opacity="1"><g transform="translate(277.111294, 201.801443)"><g><path d="M 17.671875 0.703125 C 14.867188 0.703125 12.347656 0.0625 10.109375 -1.21875 C 7.878906 -2.507812 6.113281 -4.289062 4.8125 -6.5625 C 3.507812 -8.832031 2.859375 -11.46875 2.859375 -14.46875 C 2.859375 -17.457031 3.519531 -20.085938 4.84375 -22.359375 C 6.164062 -24.640625 7.941406 -26.421875 10.171875 -27.703125 C 12.410156 -28.984375 14.929688 -29.625 17.734375 -29.625 C 20.484375 -29.625 22.976562 -28.984375 25.21875 -27.703125 C 27.457031 -26.421875 29.226562 -24.640625 30.53125 -22.359375 C 31.832031 -20.085938 32.484375 -17.457031 32.484375 -14.46875 C 32.484375 -11.46875 31.832031 -8.832031 30.53125 -6.5625 C 29.226562 -4.289062 27.445312 -2.507812 25.1875 -1.21875 C 22.9375 0.0625 20.429688 0.703125 17.671875 0.703125 Z M 17.671875 -5.765625 C 19.609375 -5.765625 21.296875 -6.492188 22.734375 -7.953125 C 24.179688 -9.410156 24.90625 -11.582031 24.90625 -14.46875 C 24.90625 -17.34375 24.179688 -19.507812 22.734375 -20.96875 C 21.296875 -22.425781 19.628906 -23.15625 17.734375 -23.15625 C 15.742188 -23.15625 14.039062 -22.425781 12.625 -20.96875 C 11.207031 -19.507812 10.5 -17.34375 10.5 -14.46875 C 10.5 -11.582031 11.207031 -9.410156 12.625 -7.953125 C 14.039062 -6.492188 15.722656 -5.765625 17.671875 -5.765625 Z M 17.671875 -5.765625 "/></g></g></g><g fill="#d1ff5d" fill-opacity="1"><g transform="translate(100.663327, 217.112244)"><g><path d="M 1 0 L 1 -9.40625 L 6.8125 -9.40625 L 6.8125 -8.484375 L 2.125 -8.484375 L 2.125 -5.203125 L 6.40625 -5.203125 L 6.40625 -4.28125 L 2.125 -4.28125 L 2.125 -0.921875 L 6.8125 -0.921875 L 6.8125 0 Z M 1 0 "/></g></g></g><g fill="#d1ff5d" fill-opacity="1"><g transform="translate(117.981865, 217.112244)"><g><path d="M 0.40625 0 L 3.875 -9.40625 L 5.0625 -9.40625 L 8.515625 0 L 7.328125 0 L 6.46875 -2.421875 L 2.453125 -2.421875 L 1.578125 0 Z M 2.796875 -3.328125 L 6.125 -3.328125 L 4.46875 -7.984375 Z M 2.796875 -3.328125 "/></g></g></g><g fill="#d1ff5d" fill-opacity="1"><g transform="translate(136.643408, 217.112244)"><g><path d="M 3.984375 0.15625 C 3.296875 0.15625 2.695312 0.03125 2.1875 -0.21875 C 1.675781 -0.46875 1.28125 -0.816406 1 -1.265625 C 0.726562 -1.710938 0.59375 -2.234375 0.59375 -2.828125 L 1.78125 -2.828125 C 1.78125 -2.453125 1.863281 -2.109375 2.03125 -1.796875 C 2.195312 -1.492188 2.441406 -1.25 2.765625 -1.0625 C 3.097656 -0.882812 3.503906 -0.796875 3.984375 -0.796875 C 4.617188 -0.796875 5.113281 -0.945312 5.46875 -1.25 C 5.820312 -1.550781 6 -1.929688 6 -2.390625 C 6 -2.765625 5.914062 -3.066406 5.75 -3.296875 C 5.59375 -3.523438 5.375 -3.710938 5.09375 -3.859375 C 4.820312 -4.003906 4.507812 -4.128906 4.15625 -4.234375 C 3.800781 -4.335938 3.429688 -4.457031 3.046875 -4.59375 C 2.328125 -4.84375 1.789062 -5.15625 1.4375 -5.53125 C 1.082031 -5.90625 0.90625 -6.390625 0.90625 -6.984375 C 0.90625 -7.484375 1.023438 -7.925781 1.265625 -8.3125 C 1.503906 -8.707031 1.84375 -9.015625 2.28125 -9.234375 C 2.726562 -9.453125 3.257812 -9.5625 3.875 -9.5625 C 4.46875 -9.5625 4.984375 -9.445312 5.421875 -9.21875 C 5.867188 -9 6.21875 -8.691406 6.46875 -8.296875 C 6.71875 -7.910156 6.847656 -7.460938 6.859375 -6.953125 L 5.671875 -6.953125 C 5.671875 -7.210938 5.601562 -7.46875 5.46875 -7.71875 C 5.332031 -7.976562 5.128906 -8.1875 4.859375 -8.34375 C 4.585938 -8.507812 4.242188 -8.59375 3.828125 -8.59375 C 3.316406 -8.601562 2.894531 -8.472656 2.5625 -8.203125 C 2.238281 -7.941406 2.078125 -7.570312 2.078125 -7.09375 C 2.078125 -6.6875 2.191406 -6.375 2.421875 -6.15625 C 2.648438 -5.945312 2.96875 -5.769531 3.375 -5.625 C 3.789062 -5.488281 4.269531 -5.332031 4.8125 -5.15625 C 5.257812 -5 5.660156 -4.8125 6.015625 -4.59375 C 6.378906 -4.375 6.660156 -4.09375 6.859375 -3.75 C 7.054688 -3.414062 7.15625 -2.984375 7.15625 -2.453125 C 7.15625 -2.003906 7.039062 -1.582031 6.8125 -1.1875 C 6.582031 -0.789062 6.226562 -0.46875 5.75 -0.21875 C 5.28125 0.03125 4.691406 0.15625 3.984375 0.15625 Z M 3.984375 0.15625 "/></g></g></g><g fill="#d1ff5d" fill-opacity="1"><g transform="translate(154.149967, 217.112244)"><g><path d="M 3.328125 0 L 3.328125 -3.578125 L 0.265625 -9.40625 L 1.546875 -9.40625 L 3.890625 -4.65625 L 6.25 -9.40625 L 7.515625 -9.40625 L 4.46875 -3.578125 L 4.46875 0 Z M 3.328125 0 "/></g></g></g><g fill="#d1ff5d" fill-opacity="1"><g transform="translate(171.669958, 217.112244)"><g><path d="M 0.796875 -3.421875 L 0.796875 -4.375 L 6.125 -4.375 L 6.125 -3.421875 Z M 0.796875 -3.421875 "/></g></g></g><g fill="#d1ff5d" fill-opacity="1"><g transform="translate(188.303563, 217.112244)"><g><path d="M 1 0 L 1 -9.40625 L 6.71875 -9.40625 L 6.71875 -8.484375 L 2.125 -8.484375 L 2.125 -5.171875 L 6.03125 -5.171875 L 6.03125 -4.265625 L 2.125 -4.265625 L 2.125 0 Z M 1 0 "/></g></g></g><g fill="#d1ff5d" fill-opacity="1"><g transform="translate(205.219198, 217.112244)"><g><path d="M 0.40625 0 L 3.875 -9.40625 L 5.0625 -9.40625 L 8.515625 0 L 7.328125 0 L 6.46875 -2.421875 L 2.453125 -2.421875 L 1.578125 0 Z M 2.796875 -3.328125 L 6.125 -3.328125 L 4.46875 -7.984375 Z M 2.796875 -3.328125 "/></g></g></g><g fill="#d1ff5d" fill-opacity="1"><g transform="translate(223.88074, 217.112244)"><g><path d="M 3.984375 0.15625 C 3.296875 0.15625 2.695312 0.03125 2.1875 -0.21875 C 1.675781 -0.46875 1.28125 -0.816406 1 -1.265625 C 0.726562 -1.710938 0.59375 -2.234375 0.59375 -2.828125 L 1.78125 -2.828125 C 1.78125 -2.453125 1.863281 -2.109375 2.03125 -1.796875 C 2.195312 -1.492188 2.441406 -1.25 2.765625 -1.0625 C 3.097656 -0.882812 3.503906 -0.796875 3.984375 -0.796875 C 4.617188 -0.796875 5.113281 -0.945312 5.46875 -1.25 C 5.820312 -1.550781 6 -1.929688 6 -2.390625 C 6 -2.765625 5.914062 -3.066406 5.75 -3.296875 C 5.59375 -3.523438 5.375 -3.710938 5.09375 -3.859375 C 4.820312 -4.003906 4.507812 -4.128906 4.15625 -4.234375 C 3.800781 -4.335938 3.429688 -4.457031 3.046875 -4.59375 C 2.328125 -4.84375 1.789062 -5.15625 1.4375 -5.53125 C 1.082031 -5.90625 0.90625 -6.390625 0.90625 -6.984375 C 0.90625 -7.484375 1.023438 -7.925781 1.265625 -8.3125 C 1.503906 -8.707031 1.84375 -9.015625 2.28125 -9.234375 C 2.726562 -9.453125 3.257812 -9.5625 3.875 -9.5625 C 4.46875 -9.5625 4.984375 -9.445312 5.421875 -9.21875 C 5.867188 -9 6.21875 -8.691406 6.46875 -8.296875 C 6.71875 -7.910156 6.847656 -7.460938 6.859375 -6.953125 L 5.671875 -6.953125 C 5.671875 -7.210938 5.601562 -7.46875 5.46875 -7.71875 C 5.332031 -7.976562 5.128906 -8.1875 4.859375 -8.34375 C 4.585938 -8.507812 4.242188 -8.59375 3.828125 -8.59375 C 3.316406 -8.601562 2.894531 -8.472656 2.5625 -8.203125 C 2.238281 -7.941406 2.078125 -7.570312 2.078125 -7.09375 C 2.078125 -6.6875 2.191406 -6.375 2.421875 -6.15625 C 2.648438 -5.945312 2.96875 -5.769531 3.375 -5.625 C 3.789062 -5.488281 4.269531 -5.332031 4.8125 -5.15625 C 5.257812 -5 5.660156 -4.8125 6.015625 -4.59375 C 6.378906 -4.375 6.660156 -4.09375 6.859375 -3.75 C 7.054688 -3.414062 7.15625 -2.984375 7.15625 -2.453125 C 7.15625 -2.003906 7.039062 -1.582031 6.8125 -1.1875 C 6.582031 -0.789062 6.226562 -0.46875 5.75 -0.21875 C 5.28125 0.03125 4.691406 0.15625 3.984375 0.15625 Z M 3.984375 0.15625 "/></g></g></g><g fill="#d1ff5d" fill-opacity="1"><g transform="translate(241.387299, 217.112244)"><g><path d="M 3.203125 0 L 3.203125 -8.484375 L 0.390625 -8.484375 L 0.390625 -9.40625 L 7.140625 -9.40625 L 7.140625 -8.484375 L 4.328125 -8.484375 L 4.328125 0 Z M 3.203125 0 "/></g></g></g><g clip-path="url(#eb6c792408)"><path fill="#d1ff5d" d="M 338.957031 220.035156 C 340.273438 220.40625 342.902344 221.214844 342.902344 221.214844 C 345.492188 190.503906 331.554688 185.425781 331.554688 185.425781 C 340.695312 192.550781 339.414062 214.675781 338.957031 220.035156 " fill-opacity="1" fill-rule="nonzero"/></g><g clip-path="url(#67ecfef878)"><path fill="#5aff7a" d="M 339.488281 150.933594 C 340.8125 150.585938 343.453125 149.816406 343.453125 149.816406 C 345.566406 180.5625 331.554688 185.425781 331.554688 185.425781 C 340.804688 178.441406 339.863281 156.300781 339.488281 150.933594 " fill-opacity="1" fill-rule="nonzero"/></g><g clip-path="url(#15303b1d74)"><path fill="#5aff7a" d="M 335.828125 149.636719 L 318.492188 156.785156 C 317.097656 168.261719 320.335938 178.675781 311.679688 185.425781 L 328.539062 185.425781 C 338.96875 177.292969 335.828125 149.636719 335.828125 149.636719 " fill-opacity="1" fill-rule="nonzero"/></g><g clip-path="url(#68eb5bfe9e)"><path fill="#d1ff5d" d="M 335.828125 221.214844 L 318.492188 214.070312 C 317.097656 202.589844 320.335938 192.175781 311.679688 185.425781 L 328.539062 185.425781 C 338.96875 193.558594 335.828125 221.214844 335.828125 221.214844 " fill-opacity="1" fill-rule="nonzero"/></g><g clip-path="url(#0e532b8778)"><path fill="#d1ff5d" d="M 351.050781 213.792969 L 346.921875 212.8125 C 346.03125 203.726562 343.503906 190.789062 336.386719 186.285156 C 336.386719 186.285156 348.46875 189.316406 351.050781 213.792969 " fill-opacity="1" fill-rule="nonzero"/></g><g clip-path="url(#7c524fda26)"><path fill="#5aff7a" d="M 351.050781 157.058594 L 346.921875 158.039062 C 346.03125 167.128906 343.503906 180.0625 336.386719 184.566406 C 336.386719 184.566406 348.46875 181.535156 351.050781 157.058594 " fill-opacity="1" fill-rule="nonzero"/></g></svg>